<svg xmlns:xlink="http://www.w3.org/1999/xlink" fill="none" width="69" xmlns="http://www.w3.org/2000/svg" style="-webkit-print-color-adjust:exact" id="screenshot-c074bcc0-56df-806b-8002-17b0ef0017ab" version="1.1" viewBox="1242 2722 69 69" height="69">
  <g id="shape-c074bcc0-56df-806b-8002-17b0ef0017ab" style="fill:#000000" rx="0" ry="0">
    <g id="shape-c074bcc0-56df-806b-8002-17b0ef0473c2">
      <g class="fills" id="fills-c074bcc0-56df-806b-8002-17b0ef0473c2">
        <path fill="none" stroke-linecap="round" stroke-linejoin="round" rx="0" ry="0" style="fill:none" d="M1265.255,2746.344L1269.415,2748.746M1265.255,2746.344C1263.814,2748.878,1261.125,2750.446,1258.210,2750.453C1255.294,2750.459,1252.599,2748.903,1251.146,2746.375C1249.694,2743.847,1249.708,2740.734,1251.183,2738.219C1253.441,2734.366,1258.387,2733.058,1262.254,2735.292C1266.122,2737.525,1267.462,2742.461,1265.255,2746.344ZZM1269.415,2748.746C1271.200,2749.776,1272.313,2751.666,1272.348,2753.727C1272.362,2754.677,1272.494,2755.609,1272.727,2756.500M1269.415,2748.746L1275.040,2751.993M1265.255,2766.656L1269.415,2764.254M1265.255,2766.656C1266.730,2769.172,1266.743,2772.284,1265.291,2774.812C1263.839,2777.341,1261.143,2778.897,1258.228,2778.890C1255.312,2778.884,1252.624,2777.316,1251.183,2774.781C1248.975,2770.899,1250.315,2765.962,1254.183,2763.729C1258.051,2761.496,1262.996,2762.803,1265.255,2766.656ZZM1269.415,2764.254C1271.199,2763.225,1272.313,2761.335,1272.348,2759.276C1272.362,2758.323,1272.494,2757.394,1272.727,2756.500M1269.415,2764.254L1275.040,2761.007M1275.040,2751.993C1276.501,2750.227,1278.449,2748.928,1280.641,2748.259L1295.063,2743.849C1297.246,2743.181,1299.574,2743.140,1301.780,2743.730L1303.954,2744.313L1282.846,2756.500M1275.040,2751.993C1273.950,2753.309,1273.161,2754.847,1272.727,2756.500M1282.846,2756.500L1303.954,2768.688L1301.782,2769.270C1299.577,2769.861,1297.249,2769.821,1295.066,2769.153L1280.641,2764.741C1278.449,2764.072,1276.501,2762.773,1275.040,2761.007M1282.846,2756.500L1275.040,2761.007">
        </path>
      </g>
      <g id="strokes-c074bcc0-56df-806b-8002-17b0ef0473c2" class="strokes">
        <g class="stroke-shape">
          <path stroke-linecap="round" stroke-linejoin="round" rx="0" ry="0" style="fill:none;fill-opacity:none;stroke-width:4;stroke:#000000" d="M1265.255,2746.344L1269.415,2748.746M1265.255,2746.344C1263.814,2748.878,1261.125,2750.446,1258.210,2750.453C1255.294,2750.459,1252.599,2748.903,1251.146,2746.375C1249.694,2743.847,1249.708,2740.734,1251.183,2738.219C1253.441,2734.366,1258.387,2733.058,1262.254,2735.292C1266.122,2737.525,1267.462,2742.461,1265.255,2746.344ZZM1269.415,2748.746C1271.200,2749.776,1272.313,2751.666,1272.348,2753.727C1272.362,2754.677,1272.494,2755.609,1272.727,2756.500M1269.415,2748.746L1275.040,2751.993M1265.255,2766.656L1269.415,2764.254M1265.255,2766.656C1266.730,2769.172,1266.743,2772.284,1265.291,2774.812C1263.839,2777.341,1261.143,2778.897,1258.228,2778.890C1255.312,2778.884,1252.624,2777.316,1251.183,2774.781C1248.975,2770.899,1250.315,2765.962,1254.183,2763.729C1258.051,2761.496,1262.996,2762.803,1265.255,2766.656ZZM1269.415,2764.254C1271.199,2763.225,1272.313,2761.335,1272.348,2759.276C1272.362,2758.323,1272.494,2757.394,1272.727,2756.500M1269.415,2764.254L1275.040,2761.007M1275.040,2751.993C1276.501,2750.227,1278.449,2748.928,1280.641,2748.259L1295.063,2743.849C1297.246,2743.181,1299.574,2743.140,1301.780,2743.730L1303.954,2744.313L1282.846,2756.500M1275.040,2751.993C1273.950,2753.309,1273.161,2754.847,1272.727,2756.500M1282.846,2756.500L1303.954,2768.688L1301.782,2769.270C1299.577,2769.861,1297.249,2769.821,1295.066,2769.153L1280.641,2764.741C1278.449,2764.072,1276.501,2762.773,1275.040,2761.007M1282.846,2756.500L1275.040,2761.007">
          </path>
        </g>
      </g>
    </g>
  </g>
</svg>
